<?xml version="1.0" encoding="UTF-8" standalone="no"?>
<svg
   viewBox="0 0 49.730469 49.730469"
   width="49.730469"
   height="49.730469"
   version="1.1"
   id="svg1"
   sodipodi:docname="icons8-plus.svg"
   inkscape:export-filename="icons8-plusQ.png"
   inkscape:export-xdpi="96"
   inkscape:export-ydpi="96"
   xmlns:inkscape="http://www.inkscape.org/namespaces/inkscape"
   xmlns:sodipodi="http://sodipodi.sourceforge.net/DTD/sodipodi-0.dtd"
   xmlns="http://www.w3.org/2000/svg"
   xmlns:svg="http://www.w3.org/2000/svg">
  <defs
     id="defs1" />
  <sodipodi:namedview
     id="namedview1"
     pagecolor="#ffffff"
     bordercolor="#000000"
     borderopacity="0.25"
     inkscape:showpageshadow="2"
     inkscape:pageopacity="0.0"
     inkscape:pagecheckerboard="0"
     inkscape:deskcolor="#d1d1d1" />
  <path
     d="M 24.865234,0 C 11.145412,0 0,11.145412 0,24.865234 c 0,13.719822 11.145412,24.865234 24.865234,24.865234 13.719822,0 24.865234,-11.145412 24.865234,-24.865234 C 49.730468,11.145412 38.585056,0 24.865234,0 Z m 0,2.1621094 c 12.551289,0 22.703125,10.1518356 22.703125,22.7031246 0,12.551289 -10.151836,22.703125 -22.703125,22.703125 -12.551289,0 -22.7031246,-10.151836 -22.7031246,-22.703125 0,-12.551289 10.1518356,-22.7031246 22.7031246,-22.7031246 z"
     style="stroke-width:1.08109"
     id="path4" />
  <path
     d="M 23.667124,10.203048 V 22.093673 H 11.774546 v 2.162109 H 23.667124 V 36.14836 h 2.162109 V 24.255782 H 37.721811 V 22.093673 H 25.829233 V 10.203048 Z"
     style="stroke-width:1.08109"
     id="path2" />
  <text
     xml:space="preserve"
     style="font-size:21.3333px;fill:#dfe9ed"
     x="27.160679"
     y="42.073685"
     id="text1"><tspan
       sodipodi:role="line"
       id="tspan1"
       x="27.160679"
       y="42.073685"
       style="font-size:21.3333px;fill:#000000">x</tspan></text>
</svg>
